<svg xmlns="http://www.w3.org/2000/svg" width="0" height="0" style="position:absolute">
  <symbol id="mail" viewBox="0 0 24 24" fill="none" stroke="currentColor" stroke-width="1.8" stroke-linecap="round" stroke-linejoin="round">
    <rect x="3" y="5" width="18" height="14" rx="2"/>
    <path d="m3 7 9 6 9-6"/>
  </symbol>
  <symbol id="linkedin" viewBox="0 0 24 24" fill="currentColor">
    <path d="M4.98 3.5C4.98 4.88 3.87 6 2.5 6S0 4.88 0 3.5 1.12 1 2.5 1s2.48 1.12 2.48 2.5zM.24 8h4.52v14H.24V8zm7.5 0h4.33v1.92h.06c.6-1.14 2.08-2.34 4.28-2.34 4.58 0 5.42 3.01 5.42 6.93V22h-4.52v-6.63c0-1.58-.03-3.62-2.2-3.62-2.2 0-2.54 1.72-2.54 3.5V22H7.74V8z"/>
  </symbol>
</svg>
